<svg width="16" height="16" viewBox="0 0 16 16" fill="none" xmlns="http://www.w3.org/2000/svg">
<g id="Ellipse-Allert">
<path id="icon" fill-rule="evenodd" clip-rule="evenodd" d="M8 16C12.4183 16 16 12.4183 16 8C16 3.58172 12.4183 0 8 0C3.58172 0 0 3.58172 0 8C0 12.4183 3.58172 16 8 16ZM7.99999 5.75984C7.4698 5.75984 7.03999 5.33004 7.03999 4.79984C7.03999 4.26965 7.4698 3.83984 7.99999 3.83984C8.53018 3.83984 8.95999 4.26965 8.95999 4.79984C8.95999 5.33004 8.53018 5.75984 7.99999 5.75984ZM8.79999 7.99984C8.79999 7.55801 8.44182 7.19984 7.99999 7.19984C7.55816 7.19984 7.19999 7.55801 7.19999 7.99984V11.9998C7.19999 12.4417 7.55816 12.7998 7.99999 12.7998C8.44182 12.7998 8.79999 12.4417 8.79999 11.9998V7.99984Z" fill="#5AA300"/>
</g>
</svg>
