<svg xmlns="http://www.w3.org/2000/svg" width="16" height="16" viewBox="0 0 16 16" fill="none">
<g id="Ellipse-check">
<path id="icon" fill-rule="evenodd" clip-rule="evenodd" d="M8 0C3.58172 0 0 3.58172 0 8C0 12.4183 3.58172 16 8 16C12.4183 16 16 12.4183 16 8C16 3.58172 12.4183 0 8 0ZM11.7121 4.98542C12.0516 5.26827 12.0974 5.77273 11.8146 6.11215L7.81458 10.9121C7.67068 11.0848 7.46079 11.189 7.23625 11.1992C7.01171 11.2094 6.79325 11.1246 6.63432 10.9657L4.23431 8.56569C3.9219 8.25327 3.9219 7.74673 4.23431 7.43431C4.54673 7.1219 5.05327 7.1219 5.36569 7.43431L7.14624 9.21487L10.5854 5.08785C10.8683 4.74843 11.3727 4.70257 11.7121 4.98542Z" fill="#5aa300"/>
</g>
</svg>