<svg width="16" height="16" viewBox="0 0 16 16" fill="none" xmlns="http://www.w3.org/2000/svg">
<g id="Location">
<path id="icon" fill-rule="evenodd" clip-rule="evenodd" d="M8.80022 15.1948L8.8 15.2039C8.79773 15.6437 8.44043 16 8.00001 16C7.55958 16 7.20228 15.6437 7.20002 15.2039L7.19979 15.1948C7.19946 15.184 7.19869 15.1644 7.19695 15.1372C7.19345 15.0825 7.18608 14.9975 7.17061 14.8897C7.13948 14.6727 7.07675 14.3712 6.95185 14.0414C6.70402 13.387 6.22265 12.6426 5.25673 12.1837C3.09635 11.1574 1.60001 8.95425 1.60001 6.4C1.60001 2.86538 4.46538 0 8.00001 0C11.5346 0 14.4 2.86538 14.4 6.4C14.4 8.95425 12.9037 11.1574 10.7433 12.1837C9.77736 12.6426 9.29599 13.387 9.04816 14.0414C8.92327 14.3712 8.86053 14.6727 8.8294 14.8897C8.81394 14.9975 8.80656 15.0825 8.80306 15.1372C8.80132 15.1644 8.80055 15.184 8.80022 15.1948ZM8.00001 8.8C9.32549 8.8 10.4 7.72548 10.4 6.4C10.4 5.07452 9.32549 4 8.00001 4C6.67452 4 5.60001 5.07452 5.60001 6.4C5.60001 7.72548 6.67452 8.8 8.00001 8.8Z" fill="#8F98A3"/>
</g>
</svg>
