<svg width="24" height="24" viewBox="0 0 24 24" fill="none" xmlns="http://www.w3.org/2000/svg">
<g id="Logo">
<path id="Vector" d="M13.9928 2.2085V7.31769H11.9825C9.44304 7.31769 7.39691 9.33363 7.39691 11.8363C7.39691 14.3381 9.44304 16.354 11.9816 16.354H13.9928V21.4632C18.5775 20.5944 22 16.6323 22 11.8354C22 7.0743 18.5785 3.11223 13.9928 2.2085Z" fill="#003791"/>
<path id="Vector_2" d="M11.9825 17.9521C8.56101 17.9521 5.77341 15.2069 5.77341 11.8363C5.77341 8.46573 8.56007 5.71963 11.9807 5.71963H12.3693V2H11.9816C6.47998 2 2 6.41394 2 11.8354C2 17.2927 6.47998 21.7066 11.9825 21.7066H12.3703V17.954H11.9825V17.9521Z" fill="#FC5055"/>
</g>
</svg>
