<svg width="21" height="20" viewBox="0 0 21 20" fill="none" xmlns="http://www.w3.org/2000/svg">
<g id="Map" clip-path="url(#clip0_287_1734)">
<path id="icon" fill-rule="evenodd" clip-rule="evenodd" d="M13.5 16.118L7.94721 18.8944C7.66569 19.0352 7.33431 19.0352 7.05279 18.8944C7.05149 18.8938 7.05019 18.8931 7.04889 18.8925L1.05279 15.8944C0.714002 15.725 0.5 15.3788 0.5 15V9V2C0.5 1.65342 0.679452 1.33156 0.974269 1.14935C1.26909 0.967143 1.63723 0.95058 1.94721 1.10557L7.5 3.88197L13.0528 1.10557C13.0813 1.09132 13.1103 1.07852 13.1397 1.06717C13.2591 1.02102 13.3849 0.998753 13.5103 1.00005C13.6618 1.00163 13.8126 1.03757 13.9508 1.10735L19.9472 4.10557C20.286 4.27497 20.5 4.62123 20.5 5V11V18C20.5 18.3466 20.3205 18.6684 20.0257 18.8507C19.7309 19.0329 19.3628 19.0494 19.0528 18.8944L13.5 16.118ZM14.5 14.382L18.5 16.382V11V5.61803L14.5 3.61803V9V14.382ZM12.5 3.61804L8.5 5.61803V11V16.382L12.5 14.382V9V3.61804ZM2.5 9V14.382L6.5 16.382V11V5.61804L2.5 3.61804V9Z" fill="#003791"/>
</g>
<defs>
<clipPath id="clip0_287_1734">
<rect width="20" height="20" fill="white" transform="translate(0.5)"/>
</clipPath>
</defs>
</svg>
