<svg width="16" height="16" viewBox="0 0 16 16" fill="none" xmlns="http://www.w3.org/2000/svg">
<g id="Ellipse-Allert">
<path id="icon" fill-rule="evenodd" clip-rule="evenodd" d="M8 16C12.4183 16 16 12.4183 16 8C16 3.58172 12.4183 0 8 0C3.58172 0 0 3.58172 0 8C0 12.4183 3.58172 16 8 16ZM7.99984 5.76004C7.46965 5.76004 7.03984 5.33023 7.03984 4.80004C7.03984 4.26985 7.46965 3.84004 7.99984 3.84004C8.53004 3.84004 8.95984 4.26985 8.95984 4.80004C8.95984 5.33023 8.53004 5.76004 7.99984 5.76004ZM8.79984 8.00004C8.79984 7.55821 8.44167 7.20004 7.99984 7.20004C7.55801 7.20004 7.19984 7.55821 7.19984 8.00004V12C7.19984 12.4419 7.55801 12.8 7.99984 12.8C8.44167 12.8 8.79984 12.4419 8.79984 12V8.00004Z" fill="#8F98A3"/>
</g>
</svg>
