<svg width="20" height="20" viewBox="0 0 20 20" fill="none" xmlns="http://www.w3.org/2000/svg">
<g id="Ellipse-Allert">
<path id="icon" fill-rule="evenodd" clip-rule="evenodd" d="M10 2C5.58172 2 2 5.58172 2 10C2 14.4183 5.58172 18 10 18C14.4183 18 18 14.4183 18 10C18 5.58172 14.4183 2 10 2ZM0 10C0 4.47715 4.47715 0 10 0C15.5228 0 20 4.47715 20 10C20 15.5228 15.5228 20 10 20C4.47715 20 0 15.5228 0 10ZM10 9C10.5523 9 11 9.44771 11 10V15C11 15.5523 10.5523 16 10 16C9.44771 16 9 15.5523 9 15V10C9 9.44771 9.44771 9 10 9ZM10 7.19999C9.33731 7.19999 8.80005 6.66273 8.80005 5.99999C8.80005 5.33725 9.33731 4.79999 10 4.79999C10.6628 4.79999 11.2 5.33725 11.2 5.99999C11.2 6.66273 10.6628 7.19999 10 7.19999Z" fill="#D74D00"/>
</g>
</svg>
