<svg width="20" height="20" viewBox="0 0 20 20" fill="none" xmlns="http://www.w3.org/2000/svg">
<g id="Delete">
<path id="icon" fill-rule="evenodd" clip-rule="evenodd" d="M10 0C7.02866 0 4.67077 1.76103 4.12131 4H4H3H2C1.44772 4 1 4.44772 1 5C1 5.55228 1.44772 6 2 6H3V15.8L3 15.8385C2.99998 16.3657 2.99997 16.8205 3.03057 17.195C3.06287 17.5904 3.13419 17.9836 3.32698 18.362C3.6146 18.9265 4.07354 19.3854 4.63803 19.673C5.01641 19.8658 5.40963 19.9371 5.80497 19.9694C6.17954 20 6.63429 20 7.16143 20H7.2H12.8H12.8386C13.3657 20 13.8205 20 14.195 19.9694C14.5904 19.9371 14.9836 19.8658 15.362 19.673C15.9265 19.3854 16.3854 18.9265 16.673 18.362C16.8658 17.9836 16.9371 17.5904 16.9694 17.195C17 16.8205 17 16.3657 17 15.8385V15.8V6H18C18.5523 6 19 5.55228 19 5C19 4.44772 18.5523 4 18 4H17H16H15.8787C15.3292 1.76103 12.9713 0 10 0ZM5 15.8V6H15V15.8C15 16.3766 14.9992 16.7488 14.9761 17.0322C14.9539 17.3038 14.9162 17.4045 14.891 17.454C14.7951 17.6422 14.6422 17.7951 14.454 17.891C14.4045 17.9162 14.3038 17.9539 14.0322 17.9761C13.7488 17.9992 13.3766 18 12.8 18H7.2C6.62345 18 6.25117 17.9992 5.96784 17.9761C5.69617 17.9539 5.59545 17.9162 5.54601 17.891C5.35785 17.7951 5.20487 17.6422 5.10899 17.454C5.0838 17.4045 5.04612 17.3038 5.02393 17.0322C5.00078 16.7488 5 16.3766 5 15.8ZM10 2C8.03842 2 6.75859 2.96428 6.24932 4H13.7507C13.2414 2.96428 11.9616 2 10 2ZM8 8C8.55228 8 9 8.44771 9 9V14C9 14.5523 8.55228 15 8 15C7.44772 15 7 14.5523 7 14V9C7 8.44771 7.44772 8 8 8ZM12 8C12.5523 8 13 8.44771 13 9V14C13 14.5523 12.5523 15 12 15C11.4477 15 11 14.5523 11 14V9C11 8.44771 11.4477 8 12 8Z" fill="#8F98A3"/>
</g>
</svg>
