<svg width="20" height="20" viewBox="0 0 20 20" fill="none" xmlns="http://www.w3.org/2000/svg">
<g id="Edit">
<path id="icon" fill-rule="evenodd" clip-rule="evenodd" d="M13.7929 1.79312C15.0118 0.574169 16.9882 0.574168 18.2071 1.79312C19.4261 3.01207 19.4261 4.98838 18.2071 6.20733L16.7071 7.70733L11.7071 12.7073C11.5196 12.8949 11.2652 13.0002 11 13.0002H10H8C7.44772 13.0002 7 12.5525 7 12.0002V10.0002V9.00023C7 8.73501 7.10536 8.48066 7.29289 8.29312L12.2929 3.29312L13.7929 1.79312ZM10.4142 11.0002L9 9.58601V9.41444L13 5.41444L14.5858 7.00023L10.5858 11.0002H10.4142ZM16.7929 3.20733C16.355 2.76943 15.645 2.76943 15.2071 3.20733L14.4142 4.00023L16 5.58601L16.7929 4.79312C17.2308 4.35522 17.2308 3.64524 16.7929 3.20733ZM6.7587 1.00023L6.8 1.00023H7C7.55229 1.00023 8 1.44794 8 2.00023C8 2.55251 7.55229 3.00023 7 3.00023H6.8C5.94342 3.00023 5.36113 3.001 4.91104 3.03778C4.47262 3.0736 4.24842 3.13852 4.09202 3.21821C3.7157 3.40996 3.40974 3.71592 3.21799 4.09225C3.1383 4.24864 3.07337 4.47285 3.03755 4.91126C3.00078 5.36135 3 5.94365 3 6.80023V13.2002C3 14.0568 3.00078 14.6391 3.03755 15.0892C3.07337 15.5276 3.1383 15.7518 3.21799 15.9082C3.40974 16.2845 3.7157 16.5905 4.09202 16.7822C4.24842 16.8619 4.47262 16.9269 4.91104 16.9627C5.36113 16.9994 5.94342 17.0002 6.8 17.0002H13.2C14.0566 17.0002 14.6389 16.9994 15.089 16.9627C15.5274 16.9269 15.7516 16.8619 15.908 16.7822C16.2843 16.5905 16.5903 16.2845 16.782 15.9082C16.8617 15.7518 16.9266 15.5276 16.9624 15.0892C16.9992 14.6391 17 14.0568 17 13.2002V13.0002C17 12.4479 17.4477 12.0002 18 12.0002C18.5523 12.0002 19 12.4479 19 13.0002V13.2002V13.2416C19 14.0465 19 14.7109 18.9558 15.2521C18.9099 15.8141 18.8113 16.3309 18.564 16.8162C18.1805 17.5688 17.5686 18.1808 16.816 18.5643C16.3306 18.8115 15.8139 18.9101 15.2518 18.956C14.7106 19.0002 14.0463 19.0002 13.2413 19.0002H13.2H6.8H6.75868C5.95372 19.0002 5.28937 19.0002 4.74818 18.956C4.18608 18.9101 3.66937 18.8115 3.18404 18.5643C2.43139 18.1808 1.81947 17.5688 1.43598 16.8162C1.18868 16.3309 1.09012 15.8141 1.04419 15.2521C0.999978 14.7109 0.999988 14.0465 1 13.2415V13.2415V13.2002V6.80023V6.75893V6.75891C0.999988 5.95395 0.999978 5.28959 1.04419 4.7484C1.09012 4.1863 1.18868 3.6696 1.43598 3.18426C1.81947 2.43162 2.43139 1.81969 3.18404 1.4362C3.66937 1.18891 4.18608 1.09034 4.74818 1.04442C5.28937 1.0002 5.95373 1.00021 6.7587 1.00023Z" fill="#8F98A3"/>
</g>
</svg>
