<svg width="20" height="20" viewBox="0 0 20 20" fill="none" xmlns="http://www.w3.org/2000/svg">
<g id="Exit">
<path id="icon" fill-rule="evenodd" clip-rule="evenodd" d="M7.8 1H7.7587C6.95373 0.999988 6.28937 0.999977 5.74818 1.04419C5.18608 1.09012 4.66937 1.18868 4.18404 1.43597C3.43139 1.81947 2.81947 2.43139 2.43598 3.18404C2.18868 3.66937 2.09012 4.18608 2.04419 4.74817C1.99998 5.28937 1.99999 5.95372 2 6.75868V6.7587V6.8V13.2V13.2413V13.2413C1.99999 14.0463 1.99998 14.7106 2.04419 15.2518C2.09012 15.8139 2.18868 16.3306 2.43598 16.816C2.81947 17.5686 3.43139 18.1805 4.18404 18.564C4.66937 18.8113 5.18608 18.9099 5.74818 18.9558C6.28937 19 6.95372 19 7.75868 19H7.8H12C12.5523 19 13 18.5523 13 18C13 17.4477 12.5523 17 12 17H7.8C6.94342 17 6.36113 16.9992 5.91104 16.9624C5.47262 16.9266 5.24842 16.8617 5.09202 16.782C4.7157 16.5903 4.40974 16.2843 4.21799 15.908C4.1383 15.7516 4.07337 15.5274 4.03755 15.089C4.00078 14.6389 4 14.0566 4 13.2V6.8C4 5.94342 4.00078 5.36113 4.03755 4.91104C4.07337 4.47262 4.1383 4.24842 4.21799 4.09202C4.40974 3.7157 4.7157 3.40973 5.09202 3.21799C5.24842 3.1383 5.47262 3.07337 5.91104 3.03755C6.36113 3.00078 6.94342 3 7.8 3H12C12.5523 3 13 2.55229 13 2C13 1.44772 12.5523 1 12 1H7.8ZM14.7071 5.29293C14.3166 4.9024 13.6834 4.9024 13.2929 5.29293C12.9024 5.68345 12.9024 6.31662 13.2929 6.70714L15.5858 9.00003H8C7.44772 9.00003 7 9.44775 7 10C7 10.5523 7.44772 11 8 11H15.5858L13.2929 13.2929C12.9024 13.6834 12.9024 14.3166 13.2929 14.7071C13.6834 15.0977 14.3166 15.0977 14.7071 14.7071L18.7071 10.7071C19.0976 10.3166 19.0976 9.68345 18.7071 9.29292L14.7071 5.29293Z" fill="#003791"/>
</g>
</svg>
