<svg width="20" height="20" viewBox="0 0 20 20" fill="none" xmlns="http://www.w3.org/2000/svg">
<g id="eye-off">
<path id="icon" fill-rule="evenodd" clip-rule="evenodd" d="M3.70711 2.29289C3.31658 1.90237 2.68342 1.90237 2.29289 2.29289C1.90237 2.68342 1.90237 3.31658 2.29289 3.70711L16.2929 17.7071C16.6834 18.0976 17.3166 18.0976 17.7071 17.7071C18.0976 17.3166 18.0976 16.6834 17.7071 16.2929L16.2174 14.8032C18.2322 13.2148 19.3937 11.2087 19.8161 10.3823C19.9407 10.1386 19.9407 9.86136 19.8161 9.61767C19.0687 8.15557 16.0074 3 9.99995 3C8.25712 3 6.76225 3.43392 5.4999 4.08569L3.70711 2.29289ZM7.00785 5.59364L8.70658 7.29237C9.09822 7.10495 9.53685 7 10 7C11.6569 7 13 8.34315 13 10C13 10.4631 12.895 10.9018 12.7076 11.2934L14.7896 13.3754C16.2376 12.2974 17.2099 10.9172 17.7457 10C16.7512 8.29755 14.2527 5 9.99995 5C8.88311 5 7.88725 5.22742 7.00785 5.59364ZM2.80014 6.06288C1.38286 7.45288 0.532054 8.93632 0.183758 9.61767C0.0591899 9.86136 0.0591903 10.1386 0.183758 10.3823C0.931164 11.8444 3.99254 17 9.99995 17C11.1811 17 12.2484 16.8007 13.2066 16.4693L11.579 14.8418C11.0823 14.9436 10.5561 15 9.99995 15C5.74715 15 3.24867 11.7024 2.2542 10C2.65619 9.31182 3.30394 8.36301 4.21397 7.47672L2.80014 6.06288Z" fill="#8F98A3"/>
</g>
</svg>
